<?xml version="1.0" encoding="utf-8"?>
<!-- Generator: Adobe Illustrator 23.0.6, SVG Export Plug-In . SVG Version: 6.00 Build 0)  -->
<svg version="1.1" id="Layer_1" xmlns="http://www.w3.org/2000/svg" xmlns:xlink="http://www.w3.org/1999/xlink" x="0px" y="0px"
	 viewBox="0 0 1920 1080" style="enable-background:new 0 0 1920 1080;" xml:space="preserve">
<style type="text/css">
	.st0{fill:#FFFFFF;}
</style>
<path class="st0" d="M1256.2,463.83c0,0,400.22-53.97,326.31,352.77c-17.64,97.01-169.86,181.06-273.4,194.03
	c-211.66,26.46-273.4-52.92-343.95-52.92c-79.37,0-141.11,79.37-317.5,61.74c-123.47-12.35-306.12-90.84-317.5-246.94
	C303.71,410.91,665.3,463.83,665.3,463.83S585.93,58.14,965.16,58.14S1256.2,463.83,1256.2,463.83z M484.51,724
	c0,114.65,123.47,158.75,211.66,158.75s167.57-79.37,273.4-79.37c88.19,0,141.11,70.55,264.58,70.55
	c61.74,0,202.84-6.88,202.84-149.93c0-177.27-229.3-185.21-388.05-79.37c105.83-79.37,158.75-432.15-88.19-432.15
	s-185.21,352.77-88.19,432.15C678.53,503.51,484.51,600.52,484.51,724z"/>
</svg>
