<svg id="Layer_1" data-name="Layer 1" xmlns="http://www.w3.org/2000/svg" viewBox="0 0 266.91 52.95"><defs><style>.cls-1{fill:#e11b22;}.cls-2{fill:#fff;}</style></defs><title>logo2-dark</title><g id="Lag_1" data-name="Lag 1"><path class="cls-1" d="M250.81,87.05c-.89,0-1.93,0-5.32,1.63-6.08,2.85-23.28.91-23.28-12.15s14.55-11.81,14.55-11.81c.34,0,.74.08.85,0s-.08-.81-.15-1.07a14.22,14.22,0,0,1,1.63-11.07,14.09,14.09,0,0,1,23.44,0,14.29,14.29,0,0,1,1.64,11.07c-.06.26-.25.94-.15,1.07s.51.07.85,0c0,0,14.55-1.17,14.55,11.81s-17.15,15-23.31,12.17C252.72,87.16,251.7,87.05,250.81,87.05Zm5.2-5.48c5.95,3.12,16.29,1.74,16.29-5,0-5.1-5.77-7.46-10.17-6.61a22.79,22.79,0,0,0-6.83,3c-.76.4-.76,0,.26-1.31,1.48-2,4.83-5.74,2.46-12.64a7.46,7.46,0,0,0-14.4,0c-2.36,6.9,1,10.66,2.51,12.64,1,1.31,1,1.72.21,1.31s-3.65-2.37-6.83-3c-4.4-.85-10.17,1.51-10.17,6.61,0,6.79,10.35,8.18,16.29,5,3.27-1.73,4.59-1.74,5.2-1.74S252.72,79.85,256,81.57Z" transform="translate(-12.51 -42.14)"/><path class="cls-2" d="M41.74,75.47a2.7,2.7,0,0,1,3-2.94,9.14,9.14,0,0,1,3.18.73l-.46,1.36A7.3,7.3,0,0,0,45.11,74c-1.21,0-1.63.56-1.63,1.75v2.09H47.9v1.38H43.48V90H41.73V79.26H40.5V77.88h1.24Z" transform="translate(-12.51 -42.14)"/><path class="cls-2" d="M55.85,77.51c3.76,0,4.8,2.06,4.8,6.28s-1,6.28-4.8,6.28-4.8-2.06-4.8-6.28S52.09,77.51,55.85,77.51Zm0,1.5c-2.6,0-3,1.41-3,4.76s.39,4.8,3,4.8,3-1.45,3-4.8S58.45,79,55.85,79Z" transform="translate(-12.51 -42.14)"/><path class="cls-2" d="M71.81,79.16a2.53,2.53,0,0,0-.49,0,4.45,4.45,0,0,0-1.26.22,10.79,10.79,0,0,0-2.4,1.36V90H65.89V79.25L65.43,78l1.43-.49L67.59,79c1.29-.7,1.89-1.09,2.4-1.31a4.44,4.44,0,0,1,1.41-.29,1.2,1.2,0,0,1,.46.07Z" transform="translate(-12.51 -42.14)"/><path class="cls-2" d="M75.42,83.79c0-4.22,1-6.28,4.8-6.28s4.78,2,4.78,6.28v.78H77.24c0,2.21.24,4,2.89,4a9,9,0,0,0,3.78-1.26l.61,1.38a10.35,10.35,0,0,1-4.46,1.38C76.44,90.07,75.42,88,75.42,83.79Zm1.8-.63h6c0-3.3-.87-4.13-3-4.13S77.24,79.76,77.22,83.16Z" transform="translate(-12.51 -42.14)"/><path class="cls-2" d="M92.47,78.55a17.83,17.83,0,0,1,4.2-1c1.7,0,3.2,1,3.2,4.27V90H98.12V82.67c0-1.94-.1-3.64-1.87-3.64a10.94,10.94,0,0,0-3.74,1V90H90.74V79.23L90.28,78,92,77.53Z" transform="translate(-12.51 -42.14)"/><path class="cls-2" d="M106.14,72.68h1.75V74.5h-1.75Zm0,5h1.75V90h-1.75Z" transform="translate(-12.51 -42.14)"/><path class="cls-2" d="M116.5,78.55a17.83,17.83,0,0,1,4.2-1c1.7,0,3.2,1,3.2,4.27V90h-1.75V82.67c0-1.94-.1-3.64-1.87-3.64a10.94,10.94,0,0,0-3.74,1V90h-1.77V79.23L114.31,78l1.67-.49Z" transform="translate(-12.51 -42.14)"/><path class="cls-2" d="M136.85,89.15a17.24,17.24,0,0,1-3.59.95c-3,0-3.9-2.33-3.9-5.65V82.22c0-3.35,1.41-4.68,3.73-4.68a14.66,14.66,0,0,1,3.74,1l.53-1,1.7.46-.51,1.21V89.92c0,3.64-1.6,5.17-4.63,5.17a12,12,0,0,1-4.66-1.41l.61-1.41a9.9,9.9,0,0,0,4,1.29c2.11,0,2.91-1.12,3-3.45Zm0-9.12a10.23,10.23,0,0,0-3.42-1c-1.77,0-2.26,1.29-2.26,3.66v1.21c0,4.27.75,4.63,2.6,4.63a12.53,12.53,0,0,0,3.08-.8V80Z" transform="translate(-12.51 -42.14)"/><path class="cls-2" d="M143.78,83.79c0-4.22,1-6.28,4.8-6.28s4.78,2,4.78,6.28v.78H145.6c0,2.21.24,4,2.89,4a9,9,0,0,0,3.78-1.26l.61,1.38a10.35,10.35,0,0,1-4.46,1.38C144.8,90.07,143.78,88,143.78,83.79Zm1.8-.63h6c0-3.3-.87-4.13-3-4.13S145.6,79.76,145.58,83.16Z" transform="translate(-12.51 -42.14)"/><path class="cls-2" d="M160.27,78.55a17.83,17.83,0,0,1,4.2-1c1.7,0,3.2,1,3.2,4.27V90h-1.75V82.67c0-1.94-.1-3.64-1.87-3.64a10.94,10.94,0,0,0-3.74,1V90h-1.77V79.23L158.08,78l1.67-.49Z" transform="translate(-12.51 -42.14)"/><path class="cls-2" d="M50,62.3a15.56,15.56,0,0,1-4.06,1.26c-3.64,0-5.58-3.08-5.64-6.48,0-.78,0-2.06,0-4.12,0-2.78,1.73-4.87,4.75-4.87a20.41,20.41,0,0,1,4.54,1.07v-7H53.1V60.27l1,2.6-3,.72Zm-.39-10.72a14.49,14.49,0,0,0-3.34-.84c-1.73,0-2.24,1.34-2.3,3.23,0,.42,0,1.13,0,2.06,0,3.67.57,4.9,3,4.9a6.62,6.62,0,0,0,2.66-.81V51.58Z" transform="translate(-12.51 -42.14)"/><path class="cls-2" d="M60.06,42.14h3.52v3H60.06Zm0,6.13h3.52V63.38H60.06Z" transform="translate(-12.51 -42.14)"/><path class="cls-2" d="M78.76,62.3a14.19,14.19,0,0,1-3.88,1.26c-3.55,0-5.58-1.85-5.58-4.87,0-2.48,1.37-4.48,5.2-4.48h3.88V52.69c0-1.31-.63-2-2.42-2a13.18,13.18,0,0,0-4.69,1.26l-1-2.42a17.12,17.12,0,0,1,5.82-1.43c3.73,0,5.76,1.08,5.76,5v7.26l1,2.63-3,.69Zm-3.68-5.91c-2.06,0-2.54,1.14-2.54,2.27s.6,2.3,2.87,2.3a6.65,6.65,0,0,0,3-.84V56.39Z" transform="translate(-12.51 -42.14)"/><path class="cls-2" d="M90.83,63.59l-3-.69.75-2.45V42.14h3.55v7a20.35,20.35,0,0,1,5-1.07c3,0,4.36,2.09,4.36,4.87,0,3,0,3.58,0,4.24,0,3.41-1.7,6.36-5.65,6.36a15.63,15.63,0,0,1-4.09-1.26Zm1.32-3.47a7.92,7.92,0,0,0,3,.81c2.36,0,2.78-1.22,2.78-4.9,0-.93,0-1.64,0-2.06-.06-1.88-.33-3.23-2.06-3.23a13.26,13.26,0,0,0-3.64.84v8.54Z" transform="translate(-12.51 -42.14)"/><path class="cls-2" d="M120,55.31V57h-9.89c.09,2,.27,3.88,3.05,3.88a10.41,10.41,0,0,0,4.9-1.58l1.1,2.39a13.35,13.35,0,0,1-6,1.88c-5.14,0-6.69-2.54-6.69-7.83S108.22,48,113.24,48C117.93,48.06,120,50.21,120,55.31Zm-9.89-.47h6.24c-.06-3.11-1-4.06-3.11-4.06S110.16,51.67,110.13,54.84Z" transform="translate(-12.51 -42.14)"/><path class="cls-2" d="M126.21,59.52V50.59h-2.06V48.23h2.06v-1.7l1.64-2.9h1.88v4.6h4v2.36h-4v8c0,1.67.57,2.09,1.58,2.09a9.88,9.88,0,0,0,3.2-.72l.72,2.54a13.29,13.29,0,0,1-4.69,1C127.82,63.53,126.21,62.12,126.21,59.52Z" transform="translate(-12.51 -42.14)"/><path class="cls-2" d="M152.11,55.31V57h-9.89c.09,2,.27,3.88,3,3.88a10.38,10.38,0,0,0,4.9-1.58l1.11,2.39a13.35,13.35,0,0,1-6,1.88c-5.14,0-6.69-2.54-6.69-7.83S140.31,48,145.33,48C150,48.06,152.11,50.21,152.11,55.31Zm-9.88-.47h6.24c-.06-3.11-1-4.06-3.11-4.06S142.26,51.67,142.23,54.84Z" transform="translate(-12.51 -42.14)"/><path class="cls-2" d="M155.94,61.7l1.4-2.33A11.14,11.14,0,0,0,162.57,61c1.43,0,3-.77,3-2.24,0-1-1.19-1.43-2.24-1.73-4-1.13-6.39-1.88-6.39-4.84s2.24-4.12,5.49-4.12a20.09,20.09,0,0,1,6.21,1.13l-.77,2.45a15.61,15.61,0,0,0-5.05-1.1c-1.32,0-2.45.51-2.45,1.52,0,1.37,2.87,1.82,3.94,2.12,3.23.89,4.81,1.7,4.81,4.45s-2.27,4.9-6.45,4.9A13.69,13.69,0,0,1,155.94,61.7Z" transform="translate(-12.51 -42.14)"/></g><g id="Layer_2" data-name="Layer 2"><rect class="cls-1" x="182.42" y="0.15" width="1.84" height="47.9"/><rect class="cls-1" y="0.15" width="1.84" height="47.9"/></g></svg>