<svg id="Layer_1" data-name="Layer 1" xmlns="http://www.w3.org/2000/svg" viewBox="0 0 677 677"><defs><style>.cls-1{fill:#00428b;}.cls-2,.cls-3{fill:#fff;}.cls-2{stroke:#fff;stroke-linecap:round;stroke-linejoin:round;}.cls-3{font-size:89.33px;font-family:Futura-Medium, Futura;font-weight:500;}.cls-4{letter-spacing:-0.03em;}</style></defs><title>sugar_icon</title><circle class="cls-1" cx="338.5" cy="338.5" r="338.5"/><polygon class="cls-2" points="339 210 224 142 339 73 453 141 339 210"/><polygon class="cls-2" points="465 286 350 355 350 225 464.81 158.46 465 286"/><polygon class="cls-2" points="215.02 286 330.02 355 330.02 225 215.21 158.46 215.02 286"/><polygon class="cls-2" points="474.13 346.55 437.69 325 481.5 295.5 481.93 214.19 588.13 277.55 474.13 346.55"/><polygon class="cls-2" points="600.13 422.55 485.13 491.55 485.13 361.55 599.95 295 600.13 422.55"/><polygon class="cls-2" points="350.15 422.54 465.15 491.54 465.15 361.54 420.17 335.47 350.22 377.77 350.15 422.54"/><polygon class="cls-2" points="204.84 349.12 241.28 327.57 197.47 298.08 197.04 216.77 90.84 280.12 204.84 349.12"/><polygon class="cls-2" points="78.84 425.12 193.84 494.12 193.84 364.12 79.03 297.58 78.84 425.12"/><polygon class="cls-2" points="328.82 425.12 213.82 494.12 213.82 364.12 258.81 338.05 328.75 380.35 328.82 425.12"/><text class="cls-3" transform="translate(183.04 596.09)">SU<tspan class="cls-4" x="118.08" y="0">G</tspan><tspan x="190.27" y="0">AR</tspan></text></svg>