<svg id="Layer_1" data-name="Layer 1" xmlns="http://www.w3.org/2000/svg" viewBox="0 0 18.14 26.41"><defs><style>.cls-1{fill:#fff;}</style></defs><title>tips-icon</title><path id="lightbulb-regular" class="cls-1" d="M682.55,375.18a5,5,0,0,0-4.95,4.95.83.83,0,1,0,1.65,0,3.3,3.3,0,0,1,3.3-3.3h0a.83.83,0,1,0,0-1.65Zm-4.12,19.56a.8.8,0,0,0,.14.45l1.26,1.9a.84.84,0,0,0,.69.37h4.07a.82.82,0,0,0,.68-.37l1.27-1.9a.8.8,0,0,0,.14-.45v-2.23h-8.25Zm4.12-23.68a9.07,9.07,0,0,0-6.83,15,14.81,14.81,0,0,1,2.71,4.76h2.47a2.53,2.53,0,0,0-.11-.73,16.46,16.46,0,0,0-3.2-5.66,6.59,6.59,0,1,1,9.93,0,16.42,16.42,0,0,0-3.2,5.65,2.6,2.6,0,0,0-.11.74h2.47a14.6,14.6,0,0,1,2.7-4.76,9.07,9.07,0,0,0-6.83-15Z" transform="translate(-673.48 -371.06)"/></svg>